<svg xmlns="http://www.w3.org/2000/svg" viewBox="0 0 39 39" class="segno"><path fill="#f4ecdb" d="M0 0h39v39h-39z"/><path class="qrline" stroke="#2e3b2c" d="M3 3.5h7m1 0h1m1 0h1m1 0h1m1 0h1m3 0h2m3 0h2m1 0h7m-33 1h1m5 0h1m1 0h2m1 0h1m1 0h7m2 0h1m1 0h1m1 0h1m5 0h1m-33 1h1m1 0h3m1 0h1m1 0h1m3 0h1m1 0h1m5 0h5m1 0h1m1 0h3m1 0h1m-33 1h1m1 0h3m1 0h1m2 0h1m3 0h1m3 0h1m1 0h2m1 0h3m1 0h1m1 0h3m1 0h1m-33 1h1m1 0h3m1 0h1m3 0h2m1 0h2m1 0h1m4 0h1m1 0h1m2 0h1m1 0h3m1 0h1m-33 1h1m5 0h1m1 0h5m2 0h1m1 0h2m1 0h3m3 0h1m5 0h1m-33 1h7m1 0h1m1 0h1m1 0h1m1 0h1m1 0h1m1 0h1m1 0h1m1 0h1m1 0h1m1 0h7m-25 1h1m4 0h3m1 0h5m1 0h2m-23 1h3m1 0h1m1 0h1m2 0h2m5 0h2m2 0h1m2 0h3m2 0h3m-32 1h1m1 0h2m2 0h4m1 0h1m4 0h1m1 0h3m1 0h1m1 0h2m3 0h1m1 0h1m-33 1h7m2 0h3m1 0h2m6 0h1m2 0h2m1 0h1m1 0h1m1 0h1m-32 1h2m5 0h1m3 0h1m1 0h2m1 0h1m2 0h7m3 0h2m1 0h1m-31 1h1m1 0h3m4 0h3m1 0h1m4 0h2m2 0h2m1 0h2m2 0h1m-28 1h1m2 0h1m1 0h2m4 0h1m3 0h2m2 0h1m2 0h1m5 0h1m-32 1h1m2 0h4m1 0h1m1 0h5m2 0h3m1 0h1m2 0h5m1 0h1m-30 1h2m1 0h1m2 0h5m1 0h1m2 0h2m1 0h4m1 0h3m1 0h3m-32 1h1m1 0h3m1 0h3m1 0h2m1 0h2m1 0h1m1 0h1m4 0h1m1 0h1m1 0h2m-29 1h2m5 0h1m1 0h1m3 0h2m1 0h1m1 0h2m3 0h2m1 0h2m4 0h1m-33 1h1m3 0h3m1 0h3m1 0h4m2 0h1m1 0h1m4 0h1m4 0h2m-31 1h2m7 0h1m1 0h2m3 0h9m2 0h3m1 0h1m-33 1h5m1 0h1m2 0h1m1 0h2m1 0h2m2 0h2m5 0h1m1 0h3m1 0h1m-32 1h2m6 0h1m2 0h1m1 0h1m3 0h4m2 0h1m2 0h1m3 0h1m1 0h1m-33 1h1m4 0h4m1 0h1m4 0h3m2 0h1m1 0h1m1 0h1m3 0h4m-32 1h1m3 0h1m2 0h1m4 0h1m4 0h2m2 0h3m3 0h1m1 0h2m1 0h1m-33 1h1m1 0h2m2 0h1m1 0h2m1 0h4m4 0h2m1 0h7m2 0h2m-25 1h5m1 0h2m1 0h1m3 0h1m1 0h2m3 0h2m2 0h1m-33 1h7m2 0h6m1 0h2m3 0h1m1 0h2m1 0h1m1 0h2m1 0h1m-32 1h1m5 0h1m4 0h3m1 0h3m3 0h1m1 0h2m3 0h5m-33 1h1m1 0h3m1 0h1m1 0h1m2 0h2m2 0h1m1 0h3m1 0h1m2 0h5m2 0h2m-33 1h1m1 0h3m1 0h1m1 0h2m1 0h2m5 0h1m1 0h2m1 0h3m2 0h3m1 0h1m-33 1h1m1 0h3m1 0h1m1 0h4m2 0h1m3 0h5m1 0h3m2 0h2m-31 1h1m5 0h1m2 0h3m1 0h2m2 0h2m1 0h1m6 0h1m1 0h2m-31 1h7m2 0h1m4 0h2m1 0h1m1 0h2m2 0h2m1 0h1m2 0h1m1 0h1"/>
<circle cx="19.50" cy="19.50" r="5.85" fill="#F4ECDB"/>
<circle cx="19.50" cy="19.50" r="5.26" fill="#1877F2"/>
<path transform="translate(17.48 15.68) scale(0.0149)" fill="#FFFFFF"
 d="M279.14 288l14.22-92.66h-88.91v-60.13c0-25.35 12.42-50.06 52.24-50.06h40.42V6.26S260.43 0 225.36 0c-73.22 0-121.08 44.38-121.08 124.72v70.62H22.89V288h81.39v224h100.17V288z"/></svg>
