<svg xmlns="http://www.w3.org/2000/svg" viewBox="0 0 43 43" class="segno"><path fill="#f4ecdb" d="M0 0h43v43h-43z"/><path class="qrline" stroke="#2e3b2c" d="M3 3.5h7m1 0h1m2 0h1m2 0h3m2 0h9m2 0h7m-37 1h1m5 0h1m1 0h1m1 0h2m3 0h1m1 0h4m4 0h4m1 0h1m5 0h1m-37 1h1m1 0h3m1 0h1m3 0h1m3 0h1m2 0h2m1 0h3m3 0h2m2 0h1m1 0h3m1 0h1m-37 1h1m1 0h3m1 0h1m1 0h1m2 0h3m7 0h1m2 0h1m1 0h1m3 0h1m1 0h3m1 0h1m-37 1h1m1 0h3m1 0h1m1 0h2m3 0h1m1 0h4m3 0h1m1 0h4m2 0h1m1 0h3m1 0h1m-37 1h1m5 0h1m1 0h7m2 0h1m4 0h7m1 0h1m5 0h1m-37 1h7m1 0h1m1 0h1m1 0h1m1 0h1m1 0h1m1 0h1m1 0h1m1 0h1m1 0h1m1 0h1m1 0h1m1 0h7m-28 1h2m2 0h5m3 0h2m3 0h1m-24 1h1m2 0h1m3 0h2m1 0h1m1 0h1m3 0h1m1 0h1m2 0h1m2 0h2m2 0h3m1 0h2m-37 1h2m9 0h2m2 0h1m2 0h2m1 0h2m1 0h1m1 0h4m1 0h1m2 0h3m-37 1h2m1 0h2m1 0h3m1 0h1m3 0h2m1 0h3m1 0h1m2 0h1m2 0h1m2 0h3m1 0h3m-36 1h4m2 0h2m1 0h1m1 0h7m3 0h1m1 0h2m2 0h1m2 0h2m2 0h2m-37 1h5m1 0h1m1 0h1m1 0h2m2 0h2m1 0h2m1 0h1m3 0h2m1 0h1m1 0h5m1 0h1m-36 1h1m2 0h3m3 0h1m1 0h1m1 0h2m4 0h2m1 0h3m2 0h1m2 0h2m1 0h1m2 0h1m-37 1h5m1 0h2m3 0h4m2 0h1m1 0h1m2 0h4m2 0h3m3 0h1m1 0h1m-33 1h1m2 0h2m1 0h1m3 0h2m2 0h3m1 0h5m1 0h3m5 0h1m-37 1h2m2 0h3m1 0h2m1 0h1m1 0h2m3 0h1m2 0h1m2 0h1m4 0h2m2 0h2m1 0h1m-37 1h1m2 0h3m2 0h3m3 0h2m2 0h5m1 0h1m1 0h1m3 0h1m1 0h1m3 0h1m-37 1h1m1 0h2m2 0h1m3 0h1m1 0h2m1 0h1m1 0h1m2 0h2m3 0h2m2 0h1m1 0h1m2 0h3m-35 1h2m1 0h1m14 0h1m1 0h2m2 0h2m2 0h2m2 0h2m-36 1h2m1 0h1m2 0h3m2 0h3m1 0h4m1 0h9m1 0h3m3 0h1m-36 1h3m1 0h1m2 0h1m1 0h1m1 0h1m2 0h1m2 0h1m3 0h1m6 0h2m2 0h1m1 0h2m-37 1h2m3 0h3m1 0h1m1 0h3m2 0h2m1 0h1m3 0h2m4 0h1m1 0h3m1 0h2m-32 1h1m1 0h2m1 0h2m2 0h1m1 0h1m3 0h1m1 0h3m1 0h1m3 0h1m1 0h1m2 0h1m-34 1h3m1 0h1m1 0h1m4 0h1m1 0h2m6 0h2m2 0h1m1 0h1m2 0h2m1 0h2m-36 1h3m4 0h2m1 0h2m1 0h5m2 0h1m1 0h3m1 0h3m3 0h4m-37 1h1m4 0h3m2 0h2m1 0h2m1 0h5m3 0h1m4 0h3m1 0h1m1 0h2m-36 1h2m2 0h1m2 0h1m2 0h6m1 0h3m1 0h1m1 0h4m2 0h2m-32 1h2m1 0h2m1 0h3m1 0h2m4 0h1m5 0h3m3 0h5m1 0h2m-28 1h2m5 0h1m2 0h1m3 0h3m1 0h3m3 0h1m2 0h2m-37 1h7m2 0h3m2 0h2m3 0h1m1 0h2m1 0h2m1 0h2m1 0h1m1 0h1m1 0h3m-37 1h1m5 0h1m2 0h3m2 0h1m2 0h2m3 0h1m3 0h1m1 0h1m3 0h1m1 0h3m-37 1h1m1 0h3m1 0h1m3 0h1m1 0h2m2 0h5m1 0h2m1 0h2m1 0h6m-34 1h1m1 0h3m1 0h1m1 0h4m1 0h1m1 0h2m1 0h2m1 0h3m1 0h1m2 0h2m2 0h2m1 0h2m-37 1h1m1 0h3m1 0h1m6 0h2m1 0h2m4 0h1m2 0h1m1 0h3m2 0h2m2 0h1m-37 1h1m5 0h1m2 0h2m2 0h2m1 0h3m2 0h2m2 0h1m1 0h2m2 0h1m-32 1h7m4 0h5m3 0h1m2 0h1m2 0h1m1 0h4m1 0h1m2 0h2"/>
<defs><linearGradient id="ig" x1="0" y1="1" x2="1" y2="0">
<stop offset="0" stop-color="#FEDA75"/><stop offset=".25" stop-color="#FA7E1E"/>
<stop offset=".55" stop-color="#D62976"/><stop offset=".8" stop-color="#962FBF"/>
<stop offset="1" stop-color="#4F5BD5"/></linearGradient></defs>
<rect x="15.05" y="15.05" width="12.90" height="12.90" rx="2.58" fill="#F4ECDB"/>
<g transform="translate(17.37 17.37) scale(0.3440)" fill="none" stroke="url(#ig)"
   stroke-width="2.1" stroke-linecap="round" stroke-linejoin="round">
<rect x="2" y="2" width="20" height="20" rx="5.6"/><circle cx="12" cy="12" r="4.9"/>
<circle cx="17.6" cy="6.4" r="1.25" fill="url(#ig)" stroke="none"/></g></svg>
